<?xml version="1.0" standalone="no"?>
<!DOCTYPE svg PUBLIC "-//W3C//DTD SVG 20010904//EN"
 "http://www.w3.org/TR/2001/REC-SVG-20010904/DTD/svg10.dtd">
<svg version="1.0" xmlns="http://www.w3.org/2000/svg"
 width="700.000000pt" height="700.000000pt" viewBox="0 0 700.000000 700.000000"
 preserveAspectRatio="xMidYMid meet">
<metadata>
Created by potrace 1.11, written by Peter Selinger 2001-2013
</metadata>
<g transform="translate(0.000000,700.000000) scale(0.100000,-0.100000)"
fill="#000000" stroke="none">
<path d="M244 5241 c-59 -15 -138 -66 -176 -114 -73 -93 -68 35 -68 -1809 l0
-1658 275 0 275 0 2 1404 3 1404 1063 -800 1062 -801 0 -603 0 -604 275 0 276
0 -3 698 -3 697 -27 55 c-15 30 -46 74 -70 96 -73 70 -2635 1994 -2685 2016
-51 22 -149 32 -199 19z"/>
<path d="M6582 5232 c-30 -11 -68 -30 -85 -42 -220 -160 -2593 -1953 -2625
-1984 -24 -22 -55 -66 -70 -96 l-27 -55 -3 -697 -3 -698 276 0 275 0 0 604 0
603 1063 801 1062 800 3 -1404 2 -1404 275 0 275 0 0 1658 c0 1454 -2 1665
-15 1710 -48 161 -244 260 -403 204z"/>
</g>
</svg>
