<svg width="26" height="26" viewBox="0 0 26 26" fill="none" xmlns="http://www.w3.org/2000/svg">
<circle cx="13.0713" cy="13.0039" r="11.8" stroke="#708390" stroke-width="1.4"/>
<path fill-rule="evenodd" clip-rule="evenodd" d="M13.4649 13.0041L18.0304 8.43856C18.0814 8.38784 18.1125 8.31779 18.1125 8.24045C18.1125 8.08577 17.9872 7.96024 17.8323 7.96024C17.7552 7.96024 17.6852 7.99162 17.6342 8.04234L13.0686 12.6079L8.50311 8.04234C8.45239 7.99162 8.38233 7.96024 8.30499 7.96024C8.15004 7.96024 8.02478 8.08577 8.02478 8.24045C8.02478 8.31779 8.05588 8.38784 8.10688 8.43884L12.6724 13.0041L8.10688 17.5696C8.05588 17.6203 8.02478 17.6904 8.02478 17.7677C8.02478 17.9227 8.15004 18.048 8.30499 18.048C8.38233 18.048 8.45239 18.0166 8.50311 17.9658L13.0686 13.4003L17.6342 17.9658C17.6852 18.0166 17.7552 18.048 17.8323 18.048C17.9872 18.048 18.1125 17.9227 18.1125 17.7677C18.1125 17.6904 18.0814 17.6203 18.0304 17.5696L13.4649 13.0041Z" fill="black" stroke="#708390"/>
</svg>
